<svg viewBox="0 0 340 340" xml:space="preserve" xmlns="http://www.w3.org/2000/svg" shape-rendering="geometricPrecision" text-rendering="geometricPrecision" image-rendering="optimizeQuality" fill-rule="evenodd" clip-rule="evenodd"><circle cx="170" cy="170" r="170" fill="#000000" class="fill-c9caca"></circle><path d="M330 170c0 89-71 160-160 160S9 259 9 170h321z" fill="#fefefe" class="fill-fefefe"></path><path d="M170 9c89 0 160 72 160 161H9C9 81 81 9 170 9z" fill="#570885" class="fill-e62129 fill-570885"></path><path d="M330 157v23H9v-10c0-5 0-9 1-13h320z" fill="#000000" class="fill-332c2b fill-000000"></path><circle cx="170" cy="170" r="54" fill="#000000" class="fill-332c2b fill-000000"></circle><circle cx="170" cy="170" r="35" fill="#fefefe" class="fill-fefefe"></circle><path d="M26 132s3-55 66-95c64-40 61-6 46 7-11 9-84 9-112 88z" fill="#fefefe" fill-opacity=".501961" class="fill-fefefe"></path><path d="M56 272c34 42 179 44 265-74-44 169-228 134-265 74z" fill="#dcdddd" class="fill-dcdddd"></path></svg>