<svg id="Layer_1" version="1.1" viewBox="0 0 135 135" xml:space="preserve" xmlns="http://www.w3.org/2000/svg" enable-background="new 0 0 135 135"><path d="M86.692 69.932C82.834 76.537 75.688 80.998 67.5 80.998s-15.334-4.461-19.191-11.066H15.542c5.142 23.963 26.481 41.986 51.958 41.986s46.815-18.023 51.957-41.986H86.692z" fill="#7b00c2" class="fill-ffbe08"></path><path d="M67.5 80.998c-8.188 0-15.334-4.461-19.191-11.066H20.182C28.991 87.123 46.889 98.924 67.5 98.924c20.61 0 38.509-11.801 47.318-28.992H86.692C82.834 76.537 75.688 80.998 67.5 80.998z" fill="#530480" class="fill-ff960b"></path><path d="M67.5 113.418c-25.589 0-48.057-18.156-53.425-43.172a1.502 1.502 0 0 1 1.467-1.815h32.767a1.5 1.5 0 0 1 1.295.743C53.323 75.543 60.18 79.498 67.5 79.498s14.178-3.955 17.896-10.323a1.5 1.5 0 0 1 1.295-.743h32.766a1.5 1.5 0 0 1 1.467 1.815c-5.367 25.015-27.835 43.171-53.424 43.171zM17.433 71.432c5.745 22.7 26.506 38.986 50.067 38.986s44.322-16.286 50.066-38.986H87.535c-4.343 6.848-11.94 11.066-20.034 11.066S51.81 78.279 47.466 71.432H17.433z" fill="#000000" class="fill-33363a fill-000000"></path><path d="M48.309 47.879c3.857-6.604 11.004-11.066 19.191-11.066s15.334 4.463 19.191 11.066h32.766C114.316 23.918 92.977 5.893 67.5 5.893S20.684 23.918 15.542 47.879h32.767z" fill="#7b00c2" class="fill-ffbe08"></path><path d="M67.5 36.812c8.188 0 15.334 4.463 19.191 11.066h28.127C106.008 30.685 88.11 18.886 67.5 18.886c-20.611 0-38.51 11.799-47.318 28.992h28.127c3.858-6.603 11.004-11.066 19.191-11.066z" fill="#530480" class="fill-ff960b"></path><path d="M119.478 49.379a.067.067 0 0 0-.02 0H86.692a1.5 1.5 0 0 1-1.295-.743C81.677 42.268 74.82 38.312 67.5 38.312s-14.177 3.955-17.896 10.323a1.5 1.5 0 0 1-1.295.743H15.542a1.5 1.5 0 0 1-1.467-1.815C19.444 22.549 41.912 4.393 67.5 4.393c25.507 0 47.913 18.042 53.372 42.935a1.499 1.499 0 0 1-1.394 2.051zm-31.944-3h30.033C111.822 23.679 91.061 7.393 67.5 7.393S23.178 23.679 17.433 46.379h30.034c4.344-6.848 11.941-11.066 20.034-11.066s15.689 4.218 20.033 11.066z" fill="#000000" class="fill-33363a fill-000000"></path><path d="M79.083 58.904c0 6.402-5.185 11.586-11.583 11.586s-11.586-5.184-11.586-11.586c0-6.396 5.188-11.586 11.586-11.586s11.583 5.19 11.583 11.586z" fill="#7b00c2" class="fill-ffbe08"></path><path d="M55.915 58.904c0-6.396 5.188-11.586 11.586-11.586s11.583 5.189 11.583 11.586" fill="#530480" class="fill-ff960b"></path><path d="M67.5 71.99c-7.216 0-13.086-5.87-13.086-13.086s5.87-13.086 13.086-13.086c7.214 0 13.083 5.87 13.083 13.086S74.714 71.99 67.5 71.99zm0-23.172c-5.562 0-10.086 4.524-10.086 10.086S61.939 68.99 67.5 68.99c5.56 0 10.083-4.524 10.083-10.086S73.06 48.818 67.5 48.818zM45.404 60.404H29.036a1.5 1.5 0 1 1 0-3h16.368a1.5 1.5 0 1 1 0 3zM19.61 60.399c-.4 0-.78-.159-1.06-.43-.28-.28-.44-.67-.44-1.07 0-.39.16-.779.43-1.06.57-.56 1.57-.56 2.13.01a1.485 1.485 0 0 1 0 2.111c-.28.28-.67.439-1.06.439zM11.02 60.399a1.498 1.498 0 0 1-1.5-1.5c0-.39.16-.779.44-1.06.55-.56 1.56-.56 2.12.01.28.271.44.66.44 1.05a1.503 1.503 0 0 1-1.5 1.5zM105.964 60.404H89.597a1.5 1.5 0 1 1 0-3h16.367a1.5 1.5 0 1 1 0 3zM115.39 60.399c-.39 0-.78-.159-1.06-.439-.28-.271-.44-.66-.44-1.061 0-.39.16-.779.44-1.06.56-.56 1.57-.56 2.12.01.28.271.44.66.44 1.05a1.503 1.503 0 0 1-1.5 1.5zM123.98 60.399a1.5 1.5 0 0 1-1.06-2.56c.56-.56 1.57-.56 2.13.01.27.271.43.66.43 1.05a1.503 1.503 0 0 1-1.5 1.5z" fill="#000000" class="fill-33363a fill-000000"></path><path d="M87.667 104.586a2.737 2.737 0 0 0-2.217-1.869l-10.701-1.557-4.785-9.699a2.747 2.747 0 0 0-4.926 0l-4.786 9.699-10.701 1.557a2.74 2.74 0 0 0-2.218 1.869 2.751 2.751 0 0 0 .695 2.816l7.744 7.545-1.829 10.658a2.748 2.748 0 0 0 1.093 2.689c.85.611 1.969.695 2.895.205l9.57-5.029 9.57 5.029a2.747 2.747 0 0 0 2.892-.205 2.746 2.746 0 0 0 1.093-2.689l-1.829-10.658 7.744-7.545a2.747 2.747 0 0 0 .696-2.816z" fill="#a200ff" class="fill-ffd00b"></path><path d="m79.227 114.947 6.254-6.096c-.011 0-.021-.004-.031-.006l-10.701-1.557-4.785-9.697a2.744 2.744 0 0 0-2.463-1.529 2.742 2.742 0 0 0-2.463 1.529l-4.786 9.697-10.701 1.557c-.011.002-.021.006-.032.006l6.254 6.096-.9 5.25.9.879-1.17 6.816c.131.146.271.283.434.402.85.611 1.969.695 2.895.205l9.57-5.029 9.57 5.029a2.747 2.747 0 0 0 2.892-.205c.162-.119.304-.256.434-.402l-1.17-6.816.9-.879-.901-5.25z" fill="#7b00c2" class="fill-ffbe08"></path><path d="M56.652 130.317c-.898 0-1.76-.278-2.492-.805a4.23 4.23 0 0 1-1.695-4.162l1.695-9.88-7.179-6.994a4.227 4.227 0 0 1-1.076-4.352 4.218 4.218 0 0 1 3.432-2.893l9.918-1.443 4.437-8.992a4.272 4.272 0 0 1 3.808-2.365c1.604 0 3.099.929 3.808 2.365l4.436 8.992 9.921 1.443a4.21 4.21 0 0 1 3.428 2.892 4.222 4.222 0 0 1-1.076 4.353l-7.179 6.994 1.696 9.881a4.226 4.226 0 0 1-1.688 4.156c-1.282.933-3.072 1.062-4.477.318l-8.869-4.661-8.873 4.663c-.603.32-1.288.49-1.975.49zM67.5 91.432c-.472 0-.91.271-1.117.692l-4.787 9.7a1.502 1.502 0 0 1-1.129.82l-10.701 1.557a1.238 1.238 0 0 0-1.007.849c-.146.454-.026.945.316 1.278l7.744 7.545a1.5 1.5 0 0 1 .432 1.328l-1.829 10.658c-.082.472.109.94.498 1.224.373.268.895.311 1.309.092l9.575-5.032a1.504 1.504 0 0 1 1.396 0l9.57 5.029a1.25 1.25 0 0 0 1.313-.091c.387-.281.578-.75.497-1.221l-1.83-10.659a1.5 1.5 0 0 1 .432-1.328l7.744-7.545a1.24 1.24 0 0 0 .315-1.279 1.236 1.236 0 0 0-1.003-.848l-10.704-1.557a1.499 1.499 0 0 1-1.129-.82l-4.785-9.699a1.258 1.258 0 0 0-1.12-.693z" fill="#000000" class="fill-33363a fill-000000"></path><path d="M45.969 113.736a1.74 1.74 0 0 0-1.406-1.186l-6.788-.988-3.036-6.152c-.292-.594-.898-.969-1.562-.969s-1.271.375-1.562.969l-3.035 6.152-6.788.988a1.744 1.744 0 0 0-.965 2.973l4.912 4.785-1.161 6.76a1.741 1.741 0 0 0 2.528 1.836l6.071-3.189 6.07 3.189c.255.137.533.201.812.201.36 0 .72-.109 1.023-.33a1.743 1.743 0 0 0 .693-1.707l-1.16-6.76 4.912-4.785a1.743 1.743 0 0 0 .442-1.787z" fill="#a200ff" class="fill-ffd00b"></path><path d="m40.616 120.309 3.967-3.865c-.007 0-.013-.004-.02-.004l-6.788-.988-3.036-6.152c-.292-.594-.898-.969-1.562-.969s-1.271.375-1.562.969l-3.035 6.152-6.788.988c-.007 0-.014.004-.02.004l3.967 3.865-.572 3.33.572.557-.742 4.324c.082.094.172.18.274.256a1.741 1.741 0 0 0 1.835.129l6.071-3.189 6.07 3.189c.255.137.533.201.812.201a1.676 1.676 0 0 0 1.298-.586l-.742-4.324.571-.557-.57-3.33z" fill="#7b00c2" class="fill-ffbe08"></path><path d="M26.296 130.606a3.243 3.243 0 0 1-1.899-.612 3.227 3.227 0 0 1-1.297-3.18l1.028-5.982-4.347-4.234a3.221 3.221 0 0 1-.822-3.323 3.263 3.263 0 0 1 2.622-2.209l6.003-.874 2.687-5.445a3.26 3.26 0 0 1 2.908-1.805 3.26 3.26 0 0 1 2.908 1.807l2.686 5.443 6.008.875a3.261 3.261 0 0 1 2.617 2.206 3.227 3.227 0 0 1-.822 3.326l-4.347 4.233 1.027 5.982a3.265 3.265 0 0 1-1.29 3.174c-.983.716-2.363.81-3.426.238l-5.361-2.817-5.374 2.823a3.226 3.226 0 0 1-1.509.374zm6.881-24.665a.242.242 0 0 0-.216.131l-3.036 6.154a1.5 1.5 0 0 1-1.129.82l-6.788.988a.243.243 0 0 0-.136.412l4.914 4.787a1.5 1.5 0 0 1 .432 1.328l-1.161 6.76a.245.245 0 0 0 .097.24c.1.07.183.052.247.019l6.08-3.194a1.504 1.504 0 0 1 1.396 0l6.07 3.189c.077.04.152.061.255-.015a.242.242 0 0 0 .097-.237l-1.161-6.762a1.5 1.5 0 0 1 .432-1.328l4.912-4.785a.245.245 0 0 0 .061-.251.239.239 0 0 0-.191-.162l-6.792-.989a1.502 1.502 0 0 1-1.129-.82l-3.036-6.152a.245.245 0 0 0-.218-.133z" fill="#000000" class="fill-33363a fill-000000"></path><path d="M114.616 113.736a1.74 1.74 0 0 0-1.407-1.186l-6.788-.988-3.035-6.152a1.74 1.74 0 0 0-1.562-.969 1.74 1.74 0 0 0-1.562.969l-3.035 6.152-6.787.988a1.741 1.741 0 0 0-.966 2.973l4.912 4.785-1.161 6.76a1.747 1.747 0 0 0 .693 1.707c.539.387 1.25.441 1.836.129l6.07-3.189 6.07 3.189c.256.137.533.201.812.201a1.738 1.738 0 0 0 1.717-2.037l-1.16-6.76 4.912-4.785a1.75 1.75 0 0 0 .441-1.787z" fill="#a200ff" class="fill-ffd00b"></path><path d="m109.262 120.309 3.967-3.865c-.008 0-.014-.004-.021-.004l-6.788-.988-3.035-6.152a1.74 1.74 0 0 0-1.562-.969 1.74 1.74 0 0 0-1.562.969l-3.035 6.152-6.787.988c-.008 0-.014.004-.021.004l3.967 3.865-.571 3.33.571.557-.742 4.324c.083.094.172.18.274.256.539.387 1.25.441 1.836.129l6.07-3.189 6.07 3.189c.256.137.533.201.812.201.36 0 .72-.109 1.024-.33.104-.076.192-.162.275-.256l-.742-4.324.57-.557-.57-3.33z" fill="#7b00c2" class="fill-ffbe08"></path><path d="M94.942 130.606a3.246 3.246 0 0 1-1.9-.612 3.227 3.227 0 0 1-1.297-3.18l1.028-5.982-4.347-4.234a3.223 3.223 0 0 1-.822-3.323 3.224 3.224 0 0 1 2.623-2.209l6.002-.874 2.687-5.445c.549-1.113 1.664-1.805 2.908-1.805s2.358.691 2.908 1.805l2.687 5.445 6.008.875a3.262 3.262 0 0 1 2.618 2.206 3.23 3.23 0 0 1-.821 3.325l-4.348 4.234 1.027 5.982a3.226 3.226 0 0 1-1.29 3.174 3.291 3.291 0 0 1-3.425.239l-5.363-2.818-5.373 2.823a3.23 3.23 0 0 1-1.51.374zm6.881-24.665a.241.241 0 0 0-.217.133l-3.035 6.152a1.5 1.5 0 0 1-1.129.82l-6.787.988a.244.244 0 0 0-.198.167.245.245 0 0 0 .062.246l4.913 4.786a1.5 1.5 0 0 1 .432 1.328l-1.161 6.76a.245.245 0 0 0 .097.24.259.259 0 0 0 .248.019l6.079-3.194a1.504 1.504 0 0 1 1.396 0l6.07 3.189c.048.027.135.074.258-.016a.248.248 0 0 0 .095-.238l-1.16-6.76a1.5 1.5 0 0 1 .432-1.328l4.912-4.785a.251.251 0 0 0 .061-.253.236.236 0 0 0-.191-.16l-6.792-.989a1.5 1.5 0 0 1-1.129-.82l-3.035-6.152a.249.249 0 0 0-.221-.133z" fill="#000000" class="fill-33363a fill-000000"></path></svg>